HIERARCHY
ROOT hip
{
  OFFSET 0 0 0
  CHANNELS 6 Xposition Yposition Zposition Zrotation Yrotation Xrotation
  JOINT abdomen
  {
    OFFSET 0 20.6881 -0.73152
    CHANNELS 3 Zrotation Xrotation Yrotation
    JOINT chest
    {
      OFFSET 0 11.7043 -0.48768
      CHANNELS 3 Zrotation Xrotation Yrotation
      JOINT neck
      {
        OFFSET 0 22.1894 -2.19456
        CHANNELS 3 Zrotation Xrotation Yrotation
        JOINT head
        {
          OFFSET -0.24384 7.07133 1.2192
          CHANNELS 3 Zrotation Xrotation Yrotation
          JOINT leftEye
          {
            OFFSET 4.14528 8.04674 8.04672
            CHANNELS 3 Zrotation Xrotation Yrotation
            End Site
            {
              OFFSET 1 0 0
            }
          }
          JOINT rightEye
          {
            OFFSET -3.6576 8.04674 8.04672
            CHANNELS 3 Zrotation Xrotation Yrotation
            End Site
            {
              OFFSET 1 0 0
            }
          }
        }
      }
      JOINT rCollar
      {
        OFFSET -2.68224 19.2634 -4.8768
        CHANNELS 3 Zrotation Xrotation Yrotation
        JOINT rShldr
        {
          OFFSET -8.77824 -1.95073 1.46304
          CHANNELS 3 Zrotation Xrotation Yrotation
          JOINT rForeArm
          {
            OFFSET -28.1742 -1.7115 0.48768
            CHANNELS 3 Zrotation Xrotation Yrotation
            JOINT rHand
            {
              OFFSET -22.5879 0.773209 7.07136
              CHANNELS 3 Zrotation Xrotation Yrotation
              JOINT rThumb1
              {
                OFFSET -1.2192 -0.487915 3.41376
                CHANNELS 3 Zrotation Xrotation Yrotation
                JOINT rThumb2
                {
                  OFFSET -3.37035 -0.52449 3.41376
                  CHANNELS 3 Zrotation Xrotation Yrotation
                  End Site
                  {
                    OFFSET -1.78271 -1.18214 1.43049
                  }
                }
              }
              JOINT rIndex1
              {
                OFFSET -7.75947 0.938293 5.60832
                CHANNELS 3 Zrotation Xrotation Yrotation
                JOINT rIndex2
                {
                  OFFSET -2.54057 -0.884171 1.56538
                  CHANNELS 3 Zrotation Xrotation Yrotation
                  End Site
                  {
                    OFFSET -1.62519 -0.234802 1.16502
                  }
                }
              }
              JOINT rMid1
              {
                OFFSET -8.24714 1.18213 3.41376
                CHANNELS 3 Zrotation Xrotation Yrotation
                JOINT rMid2
                {
                  OFFSET -3.10165 -0.590103 1.0647
                  CHANNELS 3 Zrotation Xrotation Yrotation
                  End Site
                  {
                    OFFSET -2.48547 -0.328903 0.83742
                  }
                }
              }
              JOINT rRing1
              {
                OFFSET -8.82822 0.546677 1.51678
                CHANNELS 3 Zrotation Xrotation Yrotation
                JOINT rRing2
                {
                  OFFSET -2.60934 -0.819778 -0.0198488
                  CHANNELS 3 Zrotation Xrotation Yrotation
                  End Site
                  {
                    OFFSET -2.33842 -0.294052 0.168128
                  }
                }
              }
              JOINT rPinky1
              {
                OFFSET -8.27202 -0.0477905 -0.4584
                CHANNELS 3 Zrotation Xrotation Yrotation
                JOINT rPinky2
                {
                  OFFSET -1.82734 -0.647385 -0.700984
                  CHANNELS 3 Zrotation Xrotation Yrotation
                  End Site
                  {
                    OFFSET -1.69225 -0.51767 -0.607171
                  }
                }
              }
            }
          }
        }
      }
      JOINT lCollar
      {
        OFFSET 2.68224 19.2634 -4.8768
        CHANNELS 3 Zrotation Xrotation Yrotation
        JOINT lShldr
        {
          OFFSET 8.77824 -1.95073 1.46304
          CHANNELS 3 Zrotation Xrotation Yrotation
          JOINT lForeArm
          {
            OFFSET 28.1742 -1.7115 0.48768
            CHANNELS 3 Zrotation Xrotation Yrotation
            JOINT lHand
            {
              OFFSET 22.5879 0.773209 7.07136
              CHANNELS 3 Zrotation Xrotation Yrotation
              JOINT lThumb1
              {
                OFFSET 1.2192 -0.487915 3.41376
                CHANNELS 3 Zrotation Xrotation Yrotation
                JOINT lThumb2
                {
                  OFFSET 3.37035 -0.52449 3.41376
                  CHANNELS 3 Zrotation Xrotation Yrotation
                  End Site
                  {
                    OFFSET 1.78271 -1.18214 1.43049
                  }
                }
              }
              JOINT lIndex1
              {
                OFFSET 7.75947 0.938293 5.60832
                CHANNELS 3 Zrotation Xrotation Yrotation
                JOINT lIndex2
                {
                  OFFSET 2.54057 -0.884171 1.56538
                  CHANNELS 3 Zrotation Xrotation Yrotation
                  End Site
                  {
                    OFFSET 1.62519 -0.234802 1.16502
                  }
                }
              }
              JOINT lMid1
              {
                OFFSET 8.24714 1.18213 3.41376
                CHANNELS 3 Zrotation Xrotation Yrotation
                JOINT lMid2
                {
                  OFFSET 3.10165 -0.590103 1.0647
                  CHANNELS 3 Zrotation Xrotation Yrotation
                  End Site
                  {
                    OFFSET 2.48547 -0.328903 0.83742
                  }
                }
              }
              JOINT lRing1
              {
                OFFSET 8.82822 0.546677 1.51678
                CHANNELS 3 Zrotation Xrotation Yrotation
                JOINT lRing2
                {
                  OFFSET 2.60934 -0.819778 -0.0198488
                  CHANNELS 3 Zrotation Xrotation Yrotation
                  End Site
                  {
                    OFFSET 2.33842 -0.294052 0.168128
                  }
                }
              }
              JOINT lPinky1
              {
                OFFSET 8.27202 -0.0477905 -0.4584
                CHANNELS 3 Zrotation Xrotation Yrotation
                JOINT lPinky2
                {
                  OFFSET 1.82734 -0.647385 -0.700984
                  CHANNELS 3 Zrotation Xrotation Yrotation
                  End Site
                  {
                    OFFSET 1.69225 -0.51767 -0.607171
                  }
                }
              }
            }
          }
        }
      }
    }
  }
  JOINT rButtock
  {
    OFFSET -8.77824 4.35084 1.2192
    CHANNELS 3 Zrotation Xrotation Yrotation
    JOINT rThigh
    {
      OFFSET 0 -1.70687 -2.19456
      CHANNELS 3 Zrotation Xrotation Yrotation
      JOINT rShin
      {
        OFFSET 0 -36.8199 0.73152
        CHANNELS 3 Zrotation Xrotation Yrotation
        JOINT rFoot
        {
          OFFSET 0.73152 -45.1104 -5.12064
          CHANNELS 3 Zrotation Xrotation Yrotation
          End Site
          {
            OFFSET -1.1221 -3.69964 12.103
          }
        }
      }
    }
  }
  JOINT lButtock
  {
    OFFSET 8.77824 4.35084 1.2192
    CHANNELS 3 Zrotation Xrotation Yrotation
    JOINT lThigh
    {
      OFFSET 0 -1.70687 -2.19456
      CHANNELS 3 Zrotation Xrotation Yrotation
      JOINT lShin
      {
        OFFSET 0 -36.8199 0.73152
        CHANNELS 3 Zrotation Xrotation Yrotation
        JOINT lFoot
        {
          OFFSET -0.73152 -45.1104 -5.12064
          CHANNELS 3 Zrotation Xrotation Yrotation
          End Site
          {
            OFFSET 1.1221 -3.69964 12.103
          }
        }
      }
    }
  }
}
MOTION
Frames:	9
Frame Time:	0.00833333
7.09206 85.2343 -196.198 0.0 0.0 0.0 0.705188 -0.00371385 0.0199543 0.194579 -0.00526913 0.033714 -6.63129e-15 1.59028e-15 -2.11209e-16 -1.96579e-14 9.54166e-15 -5.38893e-16 -0.0 0.0 0.0 -0.0 0.0 0.0 -3.23161e-15 1.32005e-17 0.0 -6.84374e-14 3.72721e-16 -1.19271e-15 -1.18883e-12 3.6318e-13 -3.49861e-14 -1.36247e-11 -3.24491e-13 -3.91208e-13 -3.21364e-11 8.21731e-14 -8.96916e-13 -5.55098e-11 1.43125e-13 -1.56245e-12 -3.21343e-11 8.3092e-14 -9.12819e-13 7.73091 5.47488 0.417314 -3.21367e-11 8.19987e-14 -9.03278e-13 2.90554 0.965183 0.102902 -3.2133e-11 8.19987e-14 -9.04073e-13 10.2786 0.731801 0.0259123 -3.21429e-11 8.70677e-14 -9.03278e-13 2.22167 -0.733487 -0.20892 -3.4279e-15 1.35888e-17 -1.98785e-16 -7.11471e-14 5.90142e-16 -3.18055e-15 -1.19147e-12 -3.45289e-13 -2.8625e-14 -1.36196e-11 4.13621e-13 -3.84847e-13 -3.21249e-11 1.41545e-13 -9.09639e-13 -5.54597e-11 2.41722e-13 -1.55529e-12 -3.2128e-11 1.41932e-13 -8.93736e-13 -7.73091 5.47488 -0.417314 -3.21227e-11 1.4064e-13 -9.06458e-13 -2.90554 0.965183 -0.102902 -3.21292e-11 1.41435e-13 -9.00892e-13 -10.2786 0.731801 -0.0259123 -3.21141e-11 1.46703e-13 -9.03278e-13 -2.22167 -0.733487 0.20892 -2.03217e-16 0.0 -3.88251e-19 1.03768 -4.8484 -0.0878818 -0.00129067 3.22991 0.00171958 -0.507997 1.61857 0.0909502 2.03217e-16 0.0 3.88251e-19 0.035828 -2.16336 0.0186163 0.00864531 -1.63356 0.0730528 0.498151 3.79688 -0.134157
6.0969 83.5794 -198.87 -4.6628 1.1767 8.7548 1.72051 -2.71363 -0.28067 1.35827 0.345984 -0.0875262 -0.284612 -0.913059 -0.402886 0.447241 -2.70638 -0.662756 -0.0 0.0 0.0 -0.0 0.0 0.0 -2.99945e-14 2.19818e-15 1.05915e-15 20.9268 6.83295 0.249307 -3.70806 -1.59448 5.88599 0.0221296 -3.301 -0.461149 1.51237e-11 1.96176e-10 -1.16729e-10 2.61223e-11 3.4008e-10 -2.01464e-10 1.51249e-11 1.96177e-10 -1.16742e-10 7.73091 5.47488 0.417314 1.51229e-11 1.96176e-10 -1.16737e-10 2.90554 0.965183 0.102902 1.51293e-11 1.96176e-10 -1.16735e-10 10.2786 0.731801 0.0259123 1.51177e-11 1.9618e-10 -1.16734e-10 2.22167 -0.733487 -0.20892 -3.01243e-14 2.19603e-15 8.0601e-16 -22.8457 6.125 0.906147 4.5262 -2.12141 -6.9978 -0.00237455 1.08112 -0.151844 -1.82114e-11 2.32241e-10 8.22936e-11 -3.15263e-11 4.01951e-10 1.4185e-10 -1.82138e-11 2.3224e-10 8.23077e-11 -7.73091 5.47488 -0.417314 -1.82089e-11 2.32239e-10 8.2296e-11 -2.90554 0.965183 -0.102902 -1.82162e-11 2.3224e-10 8.23003e-11 -10.2786 0.731801 -0.0259123 -1.82015e-11 2.32246e-10 8.22985e-11 -2.22167 -0.733487 0.20892 -2.03217e-16 0.0 -3.88251e-19 1.38217 -7.45849 0.528927 0.0154791 8.81915 0.111407 -0.794755 -3.0153 -3.02535 2.03217e-16 0.0 3.88251e-19 2.1575 -5.50411 -1.07631 -0.0156417 5.57989 -0.0778693 0.75762 -1.81419 2.84957
6.07022 83.5795 -198.87 -4.7758 1.1496 8.7691 2.76046 -5.57873 -0.605349 2.5895 0.718885 -0.217049 -0.599238 -1.8779 -0.82922 0.856058 -5.5679 -1.36817 -0.0 0.0 0.0 -0.0 0.0 0.0 -5.97447e-14 2.09752e-15 2.65874e-15 42.9855 14.0539 0.523539 -7.2711 -3.22217 12.1185 -0.0126092 -6.78549 -0.953143 7.0729e-11 4.07152e-10 -2.36965e-10 1.22129e-10 7.05913e-10 -4.08937e-10 7.07293e-11 4.07152e-10 -2.36973e-10 7.73091 5.47488 0.417314 7.07277e-11 4.07151e-10 -2.36974e-10 2.90554 0.965183 0.102902 7.07371e-11 4.07151e-10 -2.3697e-10 10.2786 0.731801 0.0259123 7.07237e-11 4.07155e-10 -2.36968e-10 2.22167 -0.733487 -0.20892 -5.98033e-14 2.09243e-15 2.34814e-15 -47.2116 12.592 1.89961 8.75282 -4.25911 -14.4272 0.00134805 2.22168 -0.312219 -8.4638e-13 4.8404e-10 1.72074e-10 -1.6681e-12 8.37747e-10 2.96591e-10 -8.47915e-13 4.84037e-10 1.72086e-10 -7.73091 5.47488 -0.417314 -8.43509e-13 4.84038e-10 1.72075e-10 -2.90554 0.965183 -0.102902 -8.51514e-13 4.84038e-10 1.72078e-10 -10.2786 0.731801 -0.0259123 -8.37367e-13 4.84044e-10 1.72077e-10 -2.22167 -0.733487 0.20892 -2.03217e-16 0.0 -3.88251e-19 1.80728 -10.2145 1.18915 0.00921314 14.7282 0.232354 -1.65035 -7.87568 -6.37558 2.03217e-16 0.0 3.88251e-19 4.25881 -9.03089 -2.25311 0.000867985 13.205 -0.242913 1.66967 -7.70816 6.05037
6.07147 83.5776 -198.877 -4.7685 1.1579 8.792 3.66511 -8.13259 -0.889926 3.6901 1.04847 -0.330057 -0.892393 -2.73863 -1.20989 1.15231 -8.11476 -2.00615 -0.0 0.0 0.0 -0.0 0.0 0.0 -8.35204e-14 6.56813e-15 3.17745e-15 62.5918 20.4972 0.792805 -10.156 -4.58188 17.7096 -0.0950559 -9.90042 -1.40203 1.09644e-10 5.88364e-10 -3.48394e-10 1.89387e-10 1.01995e-09 -6.01266e-10 1.09643e-10 5.88364e-10 -3.48399e-10 7.73091 5.47488 0.417314 1.09642e-10 5.88363e-10 -3.48404e-10 2.90554 0.965183 0.102902 1.09654e-10 5.88363e-10 -3.48398e-10 10.2786 0.731801 0.0259123 1.09639e-10 5.88367e-10 -3.48395e-10 2.22167 -0.733487 -0.20892 -8.3517e-14 6.56091e-15 2.8156e-15 -69.1446 18.3561 2.84794 12.0556 -5.9853 -21.0994 0.0100906 3.24327 -0.456182 9.61551e-12 6.9644e-10 2.487e-10 1.63404e-11 1.20537e-09 4.2866e-10 9.61461e-12 6.96435e-10 2.4871e-10 -7.73091 5.47488 -0.417314 9.6187e-12 6.96437e-10 2.48701e-10 -2.90554 0.965183 -0.102902 9.61e-12 6.96437e-10 2.48703e-10 -10.2786 0.731801 -0.0259123 9.62362e-12 6.96444e-10 2.48702e-10 -2.22167 -0.733487 0.20892 -2.03217e-16 0.0 -3.88251e-19 2.24363 -12.6736 1.79217 -0.0188765 19.9974 0.347807 -2.90105 -12.1335 -9.45847 2.03217e-16 0.0 3.88251e-19 6.01013 -12.1686 -3.32606 0.0550644 20.0063 -0.402858 3.056 -12.8865 9.0417
6.05894 83.5807 -198.867 -4.8106 1.1152 8.7524 4.29467 -9.90927 -1.0663 4.46086 1.2698 -0.401731 -1.10466 -3.3396 -1.47521 1.30155 -9.87912 -2.45846 -0.0 0.0 0.0 -0.0 0.0 0.0 -9.23601e-14 2.24669e-14 9.93923e-16 76.202 24.9977 1.00779 -12.0196 -5.46238 21.6479 -0.182817 -12.0939 -1.72565 1.06832e-10 6.95167e-10 -4.37807e-10 1.84773e-10 1.20452e-09 -7.55732e-10 1.06831e-10 6.95166e-10 -4.3781e-10 7.73091 5.47488 0.417314 1.0683e-10 6.95165e-10 -4.37816e-10 2.90554 0.965183 0.102902 1.06843e-10 6.95165e-10 -4.37809e-10 10.2786 0.731801 0.0259123 1.06827e-10 6.95169e-10 -4.37807e-10 2.22167 -0.733487 -0.20892 -9.23169e-14 2.24596e-14 5.96354e-16 -84.5576 22.381 3.56071 14.1108 -7.04421 -25.7774 0.0193451 3.96755 -0.558504 2.81956e-12 8.10342e-10 2.92442e-10 4.72471e-12 1.40256e-09 5.04048e-10 2.81877e-12 8.10336e-10 2.92452e-10 -7.73091 5.47488 -0.417314 2.82294e-12 8.10339e-10 2.92442e-10 -2.90554 0.965183 -0.102902 2.8137e-12 8.10338e-10 2.92443e-10 -10.2786 0.731801 -0.0259123 2.82672e-12 8.10345e-10 2.92442e-10 -2.22167 -0.733487 0.20892 -2.03217e-16 0.0 -3.88251e-19 2.58591 -14.3949 2.22749 -0.0523124 23.6672 0.434191 -4.0459 -15.0322 -11.6702 2.03217e-16 0.0 3.88251e-19 7.16568 -14.3493 -4.08567 0.117736 24.7485 -0.526643 4.36721 -16.4252 11.2674
6.03682 83.5779 -198.863 -4.8618 0.9779 8.8189 4.56756 -10.5956 -1.08394 4.77128 1.33436 -0.414804 -1.18361 -3.57078 -1.58145 1.2881 -10.5639 -2.64946 -0.0 0.0 0.0 -0.0 0.0 0.0 -7.59869e-14 6.852e-14 -7.25913e-15 81.4857 26.7818 1.10974 -12.7422 -5.80608 23.2494 -0.225943 -13.0046 -1.86216 -5.7017e-12 7.62682e-10 -5.62486e-10 -8.63967e-12 1.31935e-09 -9.71767e-10 -5.70215e-12 7.62681e-10 -5.6249e-10 7.73091 5.47488 0.417314 -5.70341e-12 7.62681e-10 -5.62492e-10 2.90554 0.965183 0.102902 -5.69099e-12 7.62681e-10 -5.62487e-10 10.2786 0.731801 0.0259123 -5.70635e-12 7.62684e-10 -5.62485e-10 2.22167 -0.733487 -0.20892 -7.59323e-14 6.85162e-14 -7.67301e-15 -90.6308 23.9893 3.85465 14.8609 -7.41817 -27.6091 0.0240234 4.28268 -0.603099 -8.50956e-11 7.75426e-10 3.05105e-10 -1.46659e-10 1.3424e-09 5.26149e-10 -8.5097e-11 7.7542e-10 3.05114e-10 -7.73091 5.47488 -0.417314 -8.50922e-11 7.75421e-10 3.05103e-10 -2.90554 0.965183 -0.102902 -8.51017e-11 7.75421e-10 3.05104e-10 -10.2786 0.731801 -0.0259123 -8.50894e-11 7.75427e-10 3.05101e-10 -2.22167 -0.733487 0.20892 -2.03217e-16 0.0 -3.88251e-19 2.74269 -15.0825 2.41424 -0.0688189 25.0966 0.468977 -4.54091 -16.1385 -12.5169 2.03217e-16 0.0 3.88251e-19 7.61644 -15.2005 -4.37282 0.14847 26.6105 -0.580621 4.98163 -17.7869 12.2282
6.03565 83.5806 -198.858 -4.8737 1.0008 8.7736 4.59105 -10.5032 -0.986901 4.7525 1.28719 -0.386045 -1.1649 -3.53826 -1.57369 1.17367 -10.4777 -2.64979 -0.0 0.0 0.0 -0.0 0.0 0.0 -4.18094e-14 1.35438e-13 -1.97387e-14 80.8414 26.6258 1.12023 -12.7141 -5.80493 23.1736 -0.224283 -12.9991 -1.86114 -1.94165e-10 7.99045e-10 -7.09208e-10 -3.3271e-10 1.37907e-09 -1.22632e-09 -1.94165e-10 7.99045e-10 -7.09215e-10 7.73091 5.47488 0.417314 -1.94166e-10 7.99045e-10 -7.09209e-10 2.90554 0.965183 0.102902 -1.94156e-10 7.99045e-10 -7.09209e-10 10.2786 0.731801 0.0259123 -1.9417e-10 7.99048e-10 -7.09206e-10 2.22167 -0.733487 -0.20892 -4.17637e-14 1.3544e-13 -2.01549e-14 -89.9766 23.8753 3.82019 14.7733 -7.3732 -27.3937 0.0241184 4.30525 -0.606283 -2.28241e-10 6.34731e-10 2.94854e-10 -3.93197e-10 1.09932e-09 5.08947e-10 -2.28243e-10 6.34726e-10 2.94865e-10 -7.73091 5.47488 -0.417314 -2.28237e-10 6.34725e-10 2.9485e-10 -2.90554 0.965183 -0.102902 -2.28247e-10 6.34725e-10 2.94852e-10 -10.2786 0.731801 -0.0259123 -2.28235e-10 6.34729e-10 2.94847e-10 -2.22167 -0.733487 0.20892 -2.03217e-16 0.0 -3.88251e-19 2.75311 -15.0328 2.41907 -0.0670438 24.9257 0.463629 -4.45306 -15.9959 -12.3447 2.03217e-16 0.0 3.88251e-19 7.594 -15.1053 -4.31227 0.144727 26.4153 -0.578258 4.95055 -17.6297 12.2249
6.01658 83.5806 -198.882 -4.9176 0.8757 8.7972 4.51281 -10.1041 -0.846949 4.59759 1.20368 -0.341668 -1.11988 -3.41058 -1.51516 1.0472 -10.0625 -2.55678 -0.0 0.0 0.0 -0.0 0.0 0.0 -7.39394e-15 1.88054e-13 -3.02506e-14 77.8283 25.6901 1.10056 -12.3821 -5.66291 22.4153 -0.203915 -12.6187 -1.80366 -3.30913e-10 7.19129e-10 -7.59003e-10 -5.67956e-10 1.23828e-09 -1.31297e-09 -3.30912e-10 7.19129e-10 -7.59014e-10 7.73091 5.47488 0.417314 -3.30913e-10 7.1913e-10 -7.59e-10 2.90554 0.965183 0.102902 -3.30905e-10 7.1913e-10 -7.59004e-10 10.2786 0.731801 0.0259123 -3.30918e-10 7.19133e-10 -7.59001e-10 2.22167 -0.733487 -0.20892 -7.37024e-15 1.88062e-13 -3.06598e-14 -86.6236 23.0645 3.6479 14.3471 -7.15764 -26.353 0.0221704 4.19952 -0.591298 -3.02345e-10 4.69199e-10 2.51507e-10 -5.20526e-10 8.13054e-10 4.34316e-10 -3.02349e-10 4.69195e-10 2.51519e-10 -7.73091 5.47488 -0.417314 -3.02341e-10 4.69192e-10 2.51501e-10 -2.90554 0.965183 -0.102902 -3.02351e-10 4.69193e-10 2.51503e-10 -10.2786 0.731801 -0.0259123 -3.02341e-10 4.69195e-10 2.51496e-10 -2.22167 -0.733487 0.20892 -2.03217e-16 0.0 -3.88251e-19 2.70112 -14.6941 2.34894 -0.0580706 24.1174 0.442294 -4.13218 -15.3502 -11.7587 2.03217e-16 0.0 3.88251e-19 7.38015 -14.6321 -4.10977 0.127228 25.3936 -0.552595 4.65647 -16.8613 11.8332
5.99432 83.5806 -198.911 -4.9474 0.7113 8.8193 4.48311 -9.87021 -0.735412 4.49942 1.1592 -0.307884 -1.12003 -3.3563 -1.46912 0.996042 -9.75985 -2.46811 -0.0 0.0 0.0 -0.0 0.0 0.0 9.69298e-15 1.91202e-13 -3.26007e-14 76.0033 25.1353 1.11331 -12.1858 -5.57982 21.9702 -0.192504 -12.404 -1.77131 -2.88299e-10 4.37807e-10 -5.92903e-10 -4.94896e-10 7.51568e-10 -1.02526e-09 -2.88297e-10 4.37807e-10 -5.92916e-10 7.73091 5.47488 0.417314 -2.88299e-10 4.37808e-10 -5.92897e-10 2.90554 0.965183 0.102902 -2.88293e-10 4.37808e-10 -5.92903e-10 10.2786 0.731801 0.0259123 -2.88304e-10 4.37811e-10 -5.929e-10 2.22167 -0.733487 -0.20892 9.68911e-15 1.91212e-13 -3.29983e-14 -84.6038 22.5817 3.53041 14.0771 -7.01686 -25.7093 0.0209627 4.12974 -0.581415 -1.83136e-10 3.59772e-10 1.6488e-10 -3.14281e-10 6.23351e-10 2.8413e-10 -1.83142e-10 3.59769e-10 1.64893e-10 -7.73091 5.47488 -0.417314 -1.83133e-10 3.59765e-10 1.64874e-10 -2.90554 0.965183 -0.102902 -1.83143e-10 3.59765e-10 1.64876e-10 -10.2786 0.731801 -0.0259123 -1.83133e-10 3.59766e-10 1.64867e-10 -2.22167 -0.733487 0.20892 -2.03217e-16 0.0 -3.88251e-19 2.67219 -14.5147 2.31126 -0.0531538 23.6344 0.429221 -3.92926 -14.9471 -11.3649 2.03217e-16 0.0 3.88251e-19 7.25625 -14.3495 -3.9713 0.117604 24.7762 -0.537154 4.49469 -16.3854 11.6333
